<svg width="24" height="24" viewBox="0 0 24 24" fill="none" xmlns="http://www.w3.org/2000/svg">
<path d="M8.88849 6.04257C6.06057 8.96846 6.67767 13.8241 9.91701 15.975C10.0237 16.0459 10.1657 16.0319 10.2574 15.9423C10.9394 15.276 11.5163 14.6305 12.0215 13.8097C12.0988 13.6841 12.0507 13.5211 11.921 13.4509C11.4269 13.1832 10.9353 12.6813 10.6585 12.1511L10.6582 12.1512C10.3266 11.491 10.2137 10.751 10.3893 9.98666C10.3894 9.98671 10.3896 9.98675 10.3898 9.98675C10.5918 9.00822 11.6423 8.09797 12.4447 7.25614C12.443 7.25558 12.4413 7.25497 12.4396 7.25441L15.4458 4.18619C16.6438 2.96347 18.6144 2.95339 19.8248 4.16382C21.0475 5.36178 21.0677 7.34229 19.8697 8.56496L18.0489 10.4374C17.9646 10.5241 17.9373 10.6505 17.9767 10.7648C18.3959 11.9806 18.4991 13.6949 18.2181 14.99C18.2102 15.0263 18.255 15.05 18.2809 15.0235L22.1563 11.0681C24.632 8.54137 24.611 4.42747 22.1096 1.92613C19.5569 -0.626554 15.4013 -0.60531 12.8748 1.97327L8.90401 6.02597C8.89876 6.0315 8.89379 6.03713 8.88849 6.04257Z" fill="#E6E6EB"/>
<path d="M16.134 16.5317C16.1339 16.5318 16.1338 16.532 16.1338 16.5321C16.1363 16.5311 16.1386 16.5301 16.1411 16.529C16.932 15.0828 17.0877 13.4241 16.717 11.8072L16.7153 11.8089L16.7135 11.8081C16.3615 10.368 15.3958 8.93797 14.0842 8.05749C13.9714 7.98176 13.7912 7.99053 13.6855 8.07597C13.0211 8.61317 12.3708 9.30202 11.9417 10.1811C11.8743 10.3191 11.9248 10.4849 12.0576 10.562C12.5556 10.8511 13.0053 11.2744 13.3064 11.8363L13.3069 11.836C13.5416 12.233 13.7728 12.9862 13.623 13.7955C13.6229 13.7955 13.6228 13.7955 13.6227 13.7955C13.483 14.8686 12.3994 15.8528 11.538 16.7397L11.5384 16.7401C10.8827 17.4107 9.21589 19.1099 8.54846 19.7918C7.3505 21.0144 5.36999 21.0346 4.14732 19.8367C2.92465 18.6387 2.90444 16.6582 4.10239 15.4355L5.92866 13.5575C6.01144 13.4723 6.03957 13.3486 6.00276 13.2357C5.59725 11.9916 5.48615 10.3159 5.74211 9.02219C5.74924 8.98613 5.70488 8.9631 5.67913 8.98936L1.86203 12.8852C-0.639023 15.4379 -0.617826 19.594 1.90921 22.121C4.46176 24.622 8.59644 24.5797 11.0974 22.0272C11.9662 21.0553 15.6855 17.6118 16.134 16.5317Z" fill="#E6E6EB"/>
</svg>
