<svg width="163" height="80" viewBox="0 0 163 80" fill="none" xmlns="http://www.w3.org/2000/svg">
<rect x="0.5" y="0.611328" width="50.603" height="78.4523" rx="3.5" stroke="#E2E6EF"/>
<rect x="7.37183" y="59.0859" width="24.5729" height="4.91457" rx="2" fill="#E2E6EF"/>
<rect x="7.37183" y="65.6387" width="33.5829" height="4.91457" rx="2" fill="#F6F6F6"/>
<path d="M0 4.11133C0 1.90219 1.79086 0.111328 4 0.111328H47.603C49.8122 0.111328 51.603 1.90219 51.603 4.11133V51.7143H0V4.11133Z" fill="#E2E6EF"/>
<rect x="56.1985" y="0.611328" width="50.603" height="78.4523" rx="3.5" stroke="#E2E6EF"/>
<rect x="63.0703" y="59.0859" width="24.5729" height="4.91457" rx="2" fill="#E2E6EF"/>
<rect x="63.0703" y="65.6387" width="33.5829" height="4.91457" rx="2" fill="#F6F6F6"/>
<path d="M55.6985 4.11133C55.6985 1.90219 57.4893 0.111328 59.6985 0.111328H103.302C105.511 0.111328 107.302 1.90219 107.302 4.11133V51.7143H55.6985V4.11133Z" fill="#E2E6EF"/>
<rect x="111.897" y="0.611328" width="50.603" height="78.4523" rx="3.5" stroke="#E2E6EF"/>
<rect x="118.769" y="59.0859" width="24.5729" height="4.91457" rx="2" fill="#E2E6EF"/>
<rect x="118.769" y="65.6387" width="33.5829" height="4.91457" rx="2" fill="#F6F6F6"/>
<path d="M111.397 4.11133C111.397 1.90219 113.188 0.111328 115.397 0.111328H159C161.209 0.111328 163 1.90219 163 4.11133V51.7143H111.397V4.11133Z" fill="#E2E6EF"/>
</svg>
