<svg width="72" height="72" viewBox="0 0 72 72" fill="none" xmlns="http://www.w3.org/2000/svg">
<g clip-path="url(#clip0_4425_93412)">
<path d="M36.4618 26.7227C32.4057 26.7227 29.1174 30.0108 29.1174 34.0671C29.1174 38.1232 32.4056 41.4115 36.4618 41.4115C40.518 41.4115 43.8063 38.1234 43.8063 34.0671C43.8063 30.0108 40.5181 26.7227 36.4618 26.7227ZM36.4618 37.914C34.3371 37.914 32.6148 36.1916 32.6148 34.0669C32.6148 31.9422 34.3371 30.2198 36.4618 30.2198C38.5866 30.2198 40.3089 31.9422 40.3089 34.0669C40.3089 36.1916 38.5866 37.914 36.4618 37.914Z" fill="#080134"/>
<path d="M65.7521 9.93329L18.0137 4.51258C16.1609 4.24917 14.2837 4.79005 12.8552 5.999C11.4268 7.10654 10.5113 8.74827 10.3196 10.5455L9.44539 17.715H6.73478C2.88769 17.715 0.00236283 21.1248 0.00236283 24.9719V60.7319C-0.0945342 64.4005 2.80083 67.4531 6.46953 67.55C6.55789 67.5524 6.64642 67.5529 6.73478 67.5517H54.7355C58.5826 67.5517 62.0799 64.579 62.0799 60.7319V59.333C63.2726 59.1026 64.4041 58.6261 65.4024 57.9341C66.819 56.7414 67.726 55.0523 67.9379 53.2128L71.9599 17.715C72.3699 13.859 69.6027 10.3903 65.7521 9.93329ZM58.5826 60.7319C58.5826 62.6555 56.659 64.0544 54.7355 64.0544H6.73478C4.99716 64.1054 3.54722 62.7381 3.49618 61.0005C3.4935 60.911 3.49467 60.8215 3.49969 60.7319V54.2619L17.0519 44.2946C18.6799 43.0446 20.973 43.1557 22.4728 44.5568L32.003 52.9504C33.4503 54.1655 35.2721 54.8448 37.1616 54.8739C38.639 54.892 40.0921 54.4986 41.3585 53.7373L58.5827 43.7699V60.7319H58.5826ZM58.5826 39.6606L39.5221 50.7646C37.8854 51.7342 35.8138 51.5587 34.3635 50.3275L24.7459 41.8464C21.9895 39.4778 17.9606 39.3326 15.0408 41.4966L3.49969 49.8902V24.9719C3.49969 23.0484 4.81123 21.2123 6.73478 21.2123H54.7355C56.7906 21.2975 58.4502 22.9195 58.5826 24.9719V39.6606ZM68.4659 17.2429C68.4647 17.2545 68.4637 17.2662 68.4624 17.2777L64.3531 52.7755C64.3601 53.6959 63.9404 54.5677 63.2164 55.1362C62.8666 55.4859 62.0797 55.6608 62.0797 55.8357V24.9719C61.9417 20.9888 58.7198 17.8052 54.7353 17.715H12.9426L13.7294 10.8952C13.9001 10.0121 14.3619 9.21183 15.041 8.62192C15.8078 8.09174 16.7349 7.84456 17.6641 7.92238L65.3152 13.4306C67.2377 13.6132 68.6485 15.32 68.4659 17.2429Z" fill="#080134"/>
</g>
<defs>
<clipPath id="clip0_4425_93412">
<rect width="72" height="72" fill="white"/>
</clipPath>
</defs>
</svg>
