<svg width="32" height="32" viewBox="0 0 32 32" fill="none" xmlns="http://www.w3.org/2000/svg">
    <path d="M28.3072 9.2924L23.8539 11.8657C23.5627 12.0329 23.2256 12.1024 22.8921 12.064C22.5586 12.0256 22.2461 11.8814 22.0005 11.6524L17.0672 7.10573C16.7777 6.83571 16.3965 6.68555 16.0005 6.68555C15.6046 6.68555 15.2234 6.83571 14.9339 7.10573L10.0005 11.6524C9.75498 11.8814 9.44252 12.0256 9.10898 12.064C8.77543 12.1024 8.43836 12.0329 8.14721 11.8657L3.69387 9.2924C3.4379 9.14565 3.14589 9.07364 2.85104 9.08455C2.55618 9.09546 2.2703 9.18885 2.02587 9.35412C1.78144 9.51939 1.58827 9.7499 1.4683 10.0195C1.34833 10.289 1.30638 10.5868 1.34721 10.8791C2.06721 16.0124 2.78721 19.7991 3.49387 25.2924C3.54385 25.6713 3.72945 26.0192 4.01628 26.2717C4.30311 26.5242 4.67173 26.6642 5.05387 26.6657H26.9472C27.3293 26.6642 27.698 26.5242 27.9848 26.2717C28.2716 26.0192 28.4572 25.6713 28.5072 25.2924C29.2139 19.7991 29.9339 16.0124 30.6539 10.8791C30.6947 10.5868 30.6527 10.289 30.5328 10.0195C30.4128 9.7499 30.2196 9.51939 29.9752 9.35412C29.7308 9.18885 29.4449 9.09546 29.15 9.08455C28.8552 9.07364 28.5632 9.14565 28.3072 9.2924ZM20.0005 22.6657H12.0005C11.6469 22.6657 11.3078 22.5253 11.0577 22.2752C10.8077 22.0252 10.6672 21.686 10.6672 21.3324C10.6672 20.9788 10.8077 20.6396 11.0577 20.3896C11.3078 20.1395 11.6469 19.9991 12.0005 19.9991H20.0005C20.3542 19.9991 20.6933 20.1395 20.9433 20.3896C21.1934 20.6396 21.3339 20.9788 21.3339 21.3324C21.3339 21.686 21.1934 22.0252 20.9433 22.2752C20.6933 22.5253 20.3542 22.6657 20.0005 22.6657Z" fill="#018DF0"/>
    </svg>
    