<svg width="26" height="26" viewBox="0 0 26 26" fill="none" xmlns="http://www.w3.org/2000/svg">
<path d="M2 13.1113C2 7.0362 6.92487 2.11133 13 2.11133C19.0751 2.11133 24 7.0362 24 13.1113C24 19.1865 19.0751 24.1113 13 24.1113C6.92487 24.1113 2 19.1865 2 13.1113Z" fill="#018DF0"/>
<path fill-rule="evenodd" clip-rule="evenodd" d="M20.7589 7.85246C21.247 8.34063 21.247 9.13209 20.7589 9.62023L12.0089 18.3698C11.5207 18.858 10.7293 18.858 10.2412 18.3699L5.86616 13.9953C5.37798 13.5071 5.37794 12.7157 5.86608 12.2275C6.35421 11.7393 7.14567 11.7393 7.63384 12.2274L11.125 15.7182L18.9911 7.85242C19.4793 7.36428 20.2708 7.3643 20.7589 7.85246Z" fill="white"/>
<path d="M13 22.6113C7.75329 22.6113 3.5 18.358 3.5 13.1113H0.5C0.5 20.0149 6.09644 25.6113 13 25.6113V22.6113ZM22.5 13.1113C22.5 18.358 18.2467 22.6113 13 22.6113V25.6113C19.9036 25.6113 25.5 20.0149 25.5 13.1113H22.5ZM13 3.61133C18.2467 3.61133 22.5 7.86462 22.5 13.1113H25.5C25.5 6.20777 19.9036 0.611328 13 0.611328V3.61133ZM13 0.611328C6.09644 0.611328 0.5 6.20777 0.5 13.1113H3.5C3.5 7.86462 7.75329 3.61133 13 3.61133V0.611328Z" fill="white"/>
</svg>
