<svg width="18" height="18" viewBox="0 0 18 18" fill="none" xmlns="http://www.w3.org/2000/svg">
<path d="M9.00012 0C7.62505 0 6.50635 1.11871 6.50635 2.49377C6.50635 2.61896 6.51587 2.74191 6.53377 2.86221H7.61735C7.58599 2.74461 7.56905 2.62114 7.56905 2.49377C7.56905 1.70466 8.21104 1.06267 9.00015 1.06267C9.78927 1.06267 10.4312 1.70466 10.4312 2.49377C10.4312 2.62114 10.4142 2.74458 10.3829 2.86221H11.4665C11.4844 2.74194 11.4939 2.61896 11.4939 2.49377C11.4938 1.11871 10.3751 0 9.00012 0Z" fill="#674DF6"/>
<path d="M17.4742 14.1673L16.1408 6.61986C15.8648 5.05765 14.5131 3.92383 12.9268 3.92383H5.07315C3.48683 3.92383 2.13511 5.05765 1.8591 6.61986L0.525691 14.1673C0.357398 15.12 0.617484 16.0915 1.23919 16.8327C1.86092 17.5739 2.77232 17.999 3.73978 17.999H14.2602C15.2277 17.999 16.1391 17.5739 16.7608 16.8327C17.3825 16.0915 17.6425 15.12 17.4742 14.1673ZM8.57194 13.0886C8.46875 13.1884 8.33551 13.2381 8.20248 13.2381C8.06354 13.2381 7.92485 13.184 7.82058 13.0763L6.33157 11.5376V12.7068C6.33157 13.0002 6.09367 13.2381 5.80022 13.2381C5.50677 13.2381 5.26887 13.0002 5.26887 12.7068V9.21604C5.26887 8.92259 5.50677 8.68469 5.80022 8.68469C6.09367 8.68469 6.33157 8.92259 6.33157 9.21604V10.3852L7.82058 8.84655C8.02466 8.63568 8.361 8.63016 8.57194 8.83421C8.7828 9.03829 8.78829 9.37463 8.58428 9.58553L7.25284 10.9614L8.58428 12.3373C8.78832 12.5481 8.7828 12.8845 8.57194 13.0886ZM11.0301 13.2381C10.0921 13.2381 9.32892 12.475 9.32892 11.537V10.3859C9.32892 9.4479 10.0921 8.68476 11.0301 8.68476C11.5577 8.68476 12.0466 8.92347 12.3716 9.33972C12.5522 9.57101 12.5111 9.90496 12.2797 10.0855C12.0483 10.2661 11.7144 10.2249 11.5339 9.99362C11.4118 9.83718 11.2281 9.74739 11.03 9.74739C10.678 9.74739 10.3916 10.0338 10.3916 10.3859V11.5369C10.3916 11.889 10.678 12.1754 11.03 12.1754C11.346 12.1754 11.6091 11.9447 11.6597 11.6428H11.4022C11.1088 11.6428 10.8709 11.4049 10.8709 11.1115C10.8709 10.818 11.1088 10.5801 11.4022 10.5801H12.1998C12.4933 10.5801 12.7312 10.818 12.7312 11.1115V11.5369H12.7312C12.7312 12.475 11.9681 13.2381 11.0301 13.2381Z" fill="#674DF6"/>
</svg>
