<svg width="32" height="32" viewBox="0 0 32 32" fill="none" xmlns="http://www.w3.org/2000/svg">
    <path d="M2 16C2 23.7336 8.2664 30 16 30C23.7336 30 30 23.7336 30 16C30 8.2664 23.7336 2 16 2C8.2664 2 2 8.2664 2 16ZM23 16.8064C23 17.5792 22.0648 17.9768 21.5104 17.4224L20.3288 16.2408L16.8288 19.7408C16.3696 20.1944 15.6304 20.1944 15.1768 19.7408L12.5 17.064L10.82 18.744C10.596 18.9736 10.2264 18.9736 9.9968 18.744L9.1736 17.9208C8.944 17.6968 8.944 17.3272 9.1736 17.0976L11.6768 14.5944C12.136 14.1408 12.8752 14.1408 13.3288 14.5944L16.0056 17.2712L18.6824 14.5888L17.5008 13.4072C16.9464 12.864 17.3328 11.9176 18.1168 11.9176H22.4232C22.748 11.9176 23.0056 12.1808 23 12.5V16.8064Z" fill="#018DF0"/>
    </svg>