<svg width="32" height="32" viewBox="0 0 32 32" fill="none" xmlns="http://www.w3.org/2000/svg">
    <path d="M8.47484 10.8357C9.7983 10.5939 11.1588 10.6468 12.4595 10.9907C13.7602 11.3347 14.969 11.9613 15.9998 12.8258C17.0991 11.9064 18.3986 11.2575 19.7939 10.931C21.1893 10.6045 22.6418 10.6096 24.0348 10.9458C22.4328 1.80791 9.56462 1.81154 7.96484 10.9458C8.13199 10.9075 8.30273 10.8659 8.47484 10.8357Z" fill="#674df6"/>
    <path d="M10.13 11.6855C7.97432 11.6873 5.90742 12.5444 4.38312 14.0687C2.85883 15.593 2.00172 17.6599 2 19.8156C2.44354 30.6017 17.8181 30.5985 18.26 19.8155C18.2583 17.6598 17.4012 15.5929 15.8769 14.0686C14.3526 12.5444 12.2857 11.6873 10.13 11.6855Z" fill="#674df6"/>
    <path d="M21.8694 11.6856C19.9965 11.6823 18.181 12.3311 16.7344 13.5206C18.355 15.2156 19.2594 17.4704 19.2594 19.8156C19.2594 22.1607 18.355 24.4155 16.7344 26.1106C18.181 27.3001 19.9965 27.9489 21.8694 27.9456C32.6546 27.5024 32.6533 12.1279 21.8694 11.6856Z" fill="#674df6"/>
    </svg>
    