<svg width="25" height="25" viewBox="0 0 25 25" fill="none" xmlns="http://www.w3.org/2000/svg">
    <path d="M11.785 18.2082L6.78498 13.2082C6.69394 13.1131 6.62258 13.001 6.57498 12.8782C6.47497 12.6348 6.47497 12.3617 6.57498 12.1182C6.62258 11.9955 6.69394 11.8833 6.78498 11.7882L11.785 6.78823C11.8782 6.69499 11.9889 6.62103 12.1107 6.57057C12.2326 6.52011 12.3631 6.49414 12.495 6.49414C12.7613 6.49414 13.0167 6.59993 13.205 6.78823C13.3933 6.97654 13.4991 7.23193 13.4991 7.49823C13.4991 7.76453 13.3933 8.01993 13.205 8.20823L9.90498 11.4982L17.495 11.4982C17.7602 11.4982 18.0146 11.6036 18.2021 11.7911C18.3896 11.9787 18.495 12.233 18.495 12.4982C18.495 12.7634 18.3896 13.0178 18.2021 13.2053C18.0146 13.3929 17.7602 13.4982 17.495 13.4982L9.90498 13.4982L13.205 16.7882C13.2987 16.8812 13.3731 16.9918 13.4239 17.1137C13.4746 17.2355 13.5008 17.3662 13.5008 17.4982C13.5008 17.6302 13.4746 17.7609 13.4239 17.8828C13.3731 18.0047 13.2987 18.1153 13.205 18.2082C13.112 18.302 13.0014 18.3764 12.8796 18.4271C12.7577 18.4779 12.627 18.504 12.495 18.504C12.363 18.504 12.2323 18.4779 12.1104 18.4271C11.9885 18.3764 11.8779 18.302 11.785 18.2082Z" fill="#080134"/>
    </svg>
    