<svg width="19" height="19" viewBox="0 0 19 19" fill="none" xmlns="http://www.w3.org/2000/svg">
<path d="M17.293 14.5469H15.0664C14.759 14.5469 14.5098 14.2976 14.5098 13.9902V0.556641C14.5098 0.249227 14.759 0 15.0664 0H17.293C17.6004 0 17.8496 0.249227 17.8496 0.556641V13.9902C17.8496 14.2976 17.6004 14.5469 17.293 14.5469Z" fill="#018DF0"/>
<path d="M12.8398 14.5469H10.6133C10.3059 14.5469 10.0566 14.2976 10.0566 13.9902V2.85742C10.0566 2.55001 10.3059 2.30078 10.6133 2.30078H12.8398C13.1473 2.30078 13.3965 2.55001 13.3965 2.85742V13.9902C13.3965 14.2976 13.1473 14.5469 12.8398 14.5469Z" fill="#018DF0"/>
<path d="M8.38672 14.5469H6.16016C5.85274 14.5469 5.60352 14.2976 5.60352 13.9902V5.08398C5.60352 4.77657 5.85274 4.52734 6.16016 4.52734H8.38672C8.69413 4.52734 8.94336 4.77657 8.94336 5.08398V13.9902C8.94336 14.2976 8.69413 14.5469 8.38672 14.5469Z" fill="#018DF0"/>
<path d="M3.93359 14.5469H1.70703C1.39962 14.5469 1.15039 14.2976 1.15039 13.9902V7.31055C1.15039 7.00313 1.39962 6.75391 1.70703 6.75391H3.93359C4.24101 6.75391 4.49023 7.00313 4.49023 7.31055V13.9902C4.49023 14.2976 4.24101 14.5469 3.93359 14.5469Z" fill="#018DF0"/>
</svg>
