<svg width="19" height="18" viewBox="0 0 19 18" fill="none" xmlns="http://www.w3.org/2000/svg">
<path fill-rule="evenodd" clip-rule="evenodd" d="M9.74992 1.5C9.82321 1.50003 9.89559 1.51617 9.96195 1.54727C10.0283 1.57838 10.087 1.62369 10.1339 1.68L15.1339 7.68C15.2013 7.76088 15.2415 7.86098 15.2487 7.96602C15.2559 8.07106 15.2297 8.1757 15.1739 8.265L10.1739 16.265C10.129 16.3369 10.0665 16.3962 9.99231 16.4373C9.91813 16.4784 9.83472 16.5 9.74992 16.5C9.66512 16.5 9.58171 16.4784 9.50754 16.4373C9.43336 16.3962 9.37087 16.3369 9.32592 16.265L4.32592 8.265C4.27014 8.1757 4.24398 8.07106 4.25117 7.96602C4.25835 7.86098 4.29851 7.76088 4.36592 7.68L9.36592 1.68C9.41282 1.62369 9.47153 1.57838 9.53789 1.54727C9.60425 1.51617 9.67663 1.50003 9.74992 1.5ZM5.49092 8.242L9.74992 6.54L14.0089 8.243L9.74992 15.057L5.49092 8.242ZM13.1009 6.802L9.74992 5.462L6.39992 6.802L9.74992 2.78L13.0999 6.8L13.1009 6.802Z" fill="#080134"/>
<path fill-rule="evenodd" clip-rule="evenodd" d="M9.74999 1.31257C9.85076 1.31261 9.95029 1.3348 10.0415 1.37757C10.1328 1.42033 10.2135 1.48262 10.278 1.56004M10.278 1.56004L15.2779 7.56002C15.278 7.56003 15.2779 7.56002 15.2779 7.56002C15.3706 7.67123 15.4259 7.80887 15.4357 7.9533C15.4456 8.09774 15.4096 8.2416 15.3329 8.3644L10.3329 16.3644C10.2711 16.4633 10.1852 16.5449 10.0832 16.6014C9.98121 16.6579 9.86652 16.6876 9.74992 16.6876C9.63331 16.6876 9.51863 16.6579 9.41664 16.6014C9.31465 16.5449 9.22872 16.4633 9.16692 16.3644L4.16692 8.36444C4.09023 8.24165 4.05422 8.09774 4.0641 7.9533C4.07398 7.80887 4.12919 7.67124 4.22188 7.56003C4.22188 7.56003 4.22187 7.56004 4.22188 7.56003L9.22185 1.56007C9.28634 1.48264 9.36707 1.42034 9.45831 1.37757C9.492 1.36177 9.52682 1.34879 9.56242 1.33869V1.3125L9.74999 1.31257M9.74999 1.68757C9.70419 1.68759 9.65894 1.69767 9.61747 1.71711C9.576 1.73656 9.5393 1.76488 9.50999 1.80007L4.50996 7.8001C4.46783 7.85065 4.44272 7.91323 4.43823 7.97888C4.43374 8.04453 4.45009 8.10993 4.48495 8.16574L9.48492 16.1657C9.51301 16.2106 9.55207 16.2477 9.59843 16.2734C9.64479 16.2991 9.69692 16.3126 9.74992 16.3126C9.80292 16.3126 9.85505 16.2991 9.90141 16.2734C9.94777 16.2477 9.98683 16.2106 10.0149 16.1657L15.0149 8.16574C15.0497 8.10993 15.0661 8.04453 15.0616 7.97888C15.0571 7.91323 15.032 7.85067 14.9899 7.80012L9.98988 1.8001C9.96056 1.76491 9.92384 1.73656 9.88237 1.71711C9.84089 1.69767 9.79579 1.68759 9.74999 1.68757L9.74992 1.50007H9.93742V1.6875L9.74999 1.68757ZM9.74988 2.48714L13.2579 6.69677L13.489 7.15919L9.74993 5.66401L6.46956 6.97616L6.25585 6.68207L9.74988 2.48714ZM9.74995 3.073L12.4835 6.35324L9.74991 5.26013L7.0181 6.35285L9.74995 3.073ZM9.74994 6.33814L14.2868 8.15225L9.74991 15.4108L5.21303 8.1512L9.74994 6.33814ZM5.76881 8.33294L9.74993 14.7033L13.731 8.33389L9.7499 6.742L5.76881 8.33294Z" fill="#080134"/>
</svg>
