<svg width="163" height="80" viewBox="0 0 163 80" fill="none" xmlns="http://www.w3.org/2000/svg">
<path d="M0.409668 52.123H51.1936" stroke="#E2E6EF"/>
<rect x="0.5" y="0.611328" width="50.603" height="78.4523" rx="3.5" stroke="#E2E6EF"/>
<rect x="7.37183" y="59.0859" width="24.5729" height="4.91457" rx="2" fill="#E2E6EF"/>
<rect x="7.37183" y="65.6387" width="33.5829" height="4.91457" rx="2" fill="#F6F6F6"/>
<rect x="6.55273" y="0.111328" width="39.3166" height="51.603" fill="#E2E6EF"/>
<path d="M56.1082 52.123H106.892" stroke="#E2E6EF"/>
<rect x="56.1985" y="0.611328" width="50.603" height="78.4523" rx="3.5" stroke="#E2E6EF"/>
<rect x="63.0703" y="59.0859" width="24.5729" height="4.91457" rx="2" fill="#E2E6EF"/>
<rect x="63.0703" y="65.6387" width="33.5829" height="4.91457" rx="2" fill="#F6F6F6"/>
<rect x="62.2512" y="0.111328" width="39.3166" height="51.603" fill="#E2E6EF"/>
<path d="M111.806 52.123H162.59" stroke="#E2E6EF"/>
<rect x="111.897" y="0.611328" width="50.603" height="78.4523" rx="3.5" stroke="#E2E6EF"/>
<rect x="118.769" y="59.0859" width="24.5729" height="4.91457" rx="2" fill="#E2E6EF"/>
<rect x="118.769" y="65.6387" width="33.5829" height="4.91457" rx="2" fill="#F6F6F6"/>
<rect x="117.95" y="0.111328" width="39.3166" height="51.603" fill="#E2E6EF"/>
</svg>
