<svg width="24" height="24" viewBox="0 0 24 24" fill="none" xmlns="http://www.w3.org/2000/svg">
<path d="M18.5622 9.98601V1.6286C18.5622 0.730562 17.8316 0 16.9336 0H3.69153C2.79349 0 2.06293 0.730562 2.06293 1.6286V18.9955C2.06293 19.8936 2.79349 20.6241 3.69153 20.6241H13.6874V23.249C13.6874 23.8225 14.3085 24.1864 14.8095 23.9002L17.0623 22.6128C19.5505 24.0347 19.4204 23.999 19.6872 23.999C20.1013 23.999 20.4371 23.6627 20.4371 23.249V18.1386C23.1064 15.5742 22.0491 11.1163 18.5622 9.98601ZM3.69153 19.1242C3.62056 19.1242 3.56286 19.0665 3.56286 18.9955V1.6286C3.56286 1.55764 3.62056 1.49994 3.69153 1.49994H16.9336C17.0046 1.49994 17.0623 1.55764 17.0623 1.6286V9.74958C14.3743 9.74958 12.1875 11.9364 12.1875 14.6244C12.1875 16.0038 12.7635 17.251 13.6874 18.1386V19.1242H3.69153ZM18.9372 21.9567L17.4344 21.0979C17.2037 20.9661 16.9208 20.9661 16.6901 21.0979L15.1873 21.9567V19.1239C16.3832 19.6241 17.7397 19.6248 18.9371 19.1239V21.9567H18.9372ZM17.0623 17.9992C15.2014 17.9992 13.6874 16.4853 13.6874 14.6244C13.6874 12.7635 15.2014 11.2495 17.0623 11.2495C18.9232 11.2495 20.4371 12.7635 20.4371 14.6244C20.4371 16.4853 18.9232 17.9992 17.0623 17.9992Z" fill="black"/>
<path d="M16.6866 16.5469C16.3936 16.5469 16.3563 16.4775 15.1463 15.6709C14.8017 15.4411 14.7085 14.9755 14.9383 14.6308C15.1681 14.2862 15.6337 14.1931 15.9783 14.4228L16.4793 14.7568L17.5632 13.1309C17.793 12.7863 18.2587 12.6932 18.6033 12.9229C18.9479 13.1527 19.041 13.6183 18.8113 13.9629L17.3113 16.2128C17.1667 16.4296 16.9289 16.5469 16.6866 16.5469Z" fill="black"/>
<path d="M12.9374 5.24993H6.56271C6.14854 5.24993 5.81274 4.91414 5.81274 4.49997C5.81274 4.0858 6.14854 3.75 6.56271 3.75H12.9374C13.3517 3.75 13.6874 4.0858 13.6874 4.49997C13.6874 4.91414 13.3516 5.24993 12.9374 5.24993Z" fill="black"/>
<path d="M12.9374 8.24993H6.56271C6.14854 8.24993 5.81274 7.91414 5.81274 7.49997C5.81274 7.0858 6.14854 6.75 6.56271 6.75H12.9374C13.3517 6.75 13.6874 7.0858 13.6874 7.49997C13.6874 7.91414 13.3516 8.24993 12.9374 8.24993Z" fill="black"/>
<path d="M10.3126 11.2499H6.56271C6.14854 11.2499 5.81274 10.9141 5.81274 10.5C5.81274 10.0858 6.14854 9.75 6.56271 9.75H10.3126C10.7267 9.75 11.0625 10.0858 11.0625 10.5C11.0625 10.9141 10.7267 11.2499 10.3126 11.2499Z" fill="black"/>
</svg>
