<svg width="32" height="32" viewBox="0 0 32 32" fill="none" xmlns="http://www.w3.org/2000/svg">
<path d="M25.4845 16.7601L13.5838 28.6607C13.4452 28.7994 13.2933 28.9315 13.1348 29.0504C13.3329 29.1032 13.5376 29.1296 13.749 29.1296H24.9364C26.2902 29.1296 27.3931 28.0267 27.3931 26.6729V16.6676C26.8648 16.6346 26.3232 16.5686 25.7619 16.4629C25.676 16.562 25.5836 16.661 25.4845 16.7601Z" fill="#018DF0"/>
<path d="M30.5161 8.96707C30.4963 8.94725 30.4765 8.92744 30.4567 8.90763C29.3538 7.80473 27.749 6.7877 25.9262 6.02822C25.596 5.88953 25.2592 5.76405 24.9224 5.65178V5.63197C24.9026 4.17245 23.727 2.99691 22.2675 2.9771L15.1351 2.87144C14.1907 2.85823 13.2793 3.22806 12.6123 3.89508L0.718201 15.8024C-0.2394 16.76 -0.2394 18.3185 0.718201 19.2761L8.62997 27.1879C9.58757 28.1455 11.1461 28.1455 12.1038 27.1879L24.011 15.2806C24.3544 14.9372 24.612 14.5344 24.7903 14.0919C25.9857 14.4287 27.148 14.607 28.1716 14.6004C30.7076 14.5872 31.5464 13.4777 31.8237 12.8173C32.0945 12.1569 32.2926 10.7766 30.5161 8.96707ZM15.7823 15.7231C15.5049 15.875 15.2209 16.0401 14.9369 16.1854C14.6662 16.3241 14.5737 16.2911 14.4746 16.0005C14.2699 15.4193 13.9397 14.924 13.484 14.5146C13.3651 14.4089 13.2397 14.3098 13.0878 14.2504C12.5462 14.0391 12.0707 14.3891 12.1368 14.9702C12.1698 15.2608 12.2622 15.5382 12.3745 15.809C12.566 16.2779 12.7708 16.7468 12.9095 17.2355C13.3585 18.794 12.3679 20.3262 10.8027 20.4781C10.2348 20.5309 9.69324 20.4121 9.19793 20.1281C8.97999 20.0026 8.81489 20.0158 8.64978 20.2007C8.48468 20.379 8.29976 20.5441 8.12805 20.7158C7.97616 20.8677 7.81105 20.8743 7.65916 20.7225C7.46764 20.5441 7.28272 20.3526 7.09781 20.1677C6.93931 20.0026 6.95252 19.8309 7.11102 19.6724C7.23649 19.5469 7.36197 19.4148 7.48745 19.2894C7.76483 19.0054 7.76483 18.9856 7.54029 18.6752C7.2497 18.2789 6.99214 17.8629 6.83364 17.394C6.70816 17.0307 6.74118 16.9383 7.07139 16.7534C7.31574 16.6147 7.5601 16.476 7.81105 16.3439C8.10164 16.192 8.18749 16.225 8.28655 16.5354C8.45166 17.0638 8.72243 17.5326 9.05924 17.9685C9.27718 18.2525 9.54795 18.4638 9.87815 18.5959C10.4989 18.8403 11.0669 18.4044 11.0009 17.744C10.981 17.5194 10.915 17.3015 10.8292 17.0902C10.6178 16.5486 10.347 16.0269 10.2084 15.4523C9.97721 14.5278 10.0829 13.6824 10.8292 13.022C11.6745 12.2757 12.6189 12.2295 13.6161 12.6918C14.0256 12.8833 14.0256 12.8899 14.3426 12.5729C14.4482 12.4673 14.5539 12.3616 14.6662 12.2559C14.9105 12.0248 14.9898 12.0248 15.2341 12.2559C15.3068 12.3286 15.3794 12.4012 15.4521 12.4739C15.954 12.9758 15.954 12.9758 15.4521 13.4843C15.0954 13.8409 15.0954 13.8409 15.3926 14.2504C15.6238 14.5674 15.8021 14.9042 15.9408 15.2674C16.0134 15.4655 15.9738 15.6174 15.7823 15.7231ZM29.9085 12.0248C29.684 12.5597 27.2867 13.0286 23.6478 11.5097C22.5779 11.0672 21.5873 10.5124 20.775 9.91806C20.7486 9.95108 20.7156 9.9841 20.6891 10.0171C19.8966 10.8096 18.6022 10.8096 17.8097 10.0171C17.0172 9.22463 17.0172 7.93021 17.8097 7.13772C18.6022 6.34522 19.8966 6.34522 20.6891 7.13772C21.1646 7.61321 21.3496 8.26042 21.2637 8.87461C22.043 9.42936 22.9808 9.93788 23.978 10.3539C24.3346 10.4992 24.6714 10.6313 25.0016 10.7436L24.962 7.87738C25.0215 7.9038 25.0743 7.92361 25.1337 7.95003C26.6923 8.59723 28.0924 9.48219 28.9972 10.387C29.0104 10.4002 29.0236 10.4134 29.0368 10.4266C29.8953 11.2917 29.9812 11.8465 29.9085 12.0248Z" fill="#018DF0"/>
</svg>