<svg width="24" height="24" viewBox="0 0 24 24" fill="none" xmlns="http://www.w3.org/2000/svg">
<path d="M3.09009 17.791C5.08209 17.931 6.81809 17.447 8.41709 16.22C7.60109 16.122 6.89009 15.909 6.29009 15.434C5.70609 14.968 5.25809 14.387 5.01809 13.593H6.49809C6.50609 13.56 6.51409 13.527 6.52209 13.486C5.70609 13.249 5.01009 12.823 4.49009 12.144C3.97009 11.474 3.71509 10.696 3.69009 9.84398C4.21009 9.99198 4.70609 10.139 5.21009 10.278C5.22609 10.245 5.25009 10.213 5.26609 10.18C4.54609 9.57398 4.02609 8.84598 3.83509 7.90498C3.63793 6.98719 3.77667 6.02913 4.22609 5.20498C6.22609 7.59398 8.73709 8.91998 11.8241 9.14098C11.7281 8.36298 11.7201 7.64298 11.9841 6.93898C12.8961 4.47598 15.9671 3.68998 17.8781 5.45798C18.0941 5.65398 18.2781 5.68698 18.5101 5.60498C19.1421 5.37598 19.7651 5.13098 20.4131 4.88498C20.1651 5.69498 19.6291 6.29298 18.9981 6.87398C19.6131 6.70998 20.2291 6.53798 20.8371 6.37398C20.8611 6.39898 20.8851 6.41498 20.9091 6.43998C20.4451 6.93098 19.9971 7.44698 19.4941 7.88898C19.2221 8.12598 19.1341 8.34698 19.1181 8.70698C18.9741 12.717 17.3661 15.957 13.9431 17.996C10.4561 20.066 6.86609 19.943 3.33109 17.971C3.26709 17.931 3.21109 17.881 3.09109 17.791H3.09009Z" fill="#9C99AE"/>
</svg>
