<svg width="24" height="24" viewBox="0 0 24 24" fill="none" xmlns="http://www.w3.org/2000/svg">
<path d="M15.75 2H8.25C4.79875 2 2 4.79875 2 8.25V15.75C2 19.2012 4.79875 22 8.25 22H15.75C19.2012 22 22 19.2012 22 15.75V8.25C22 4.79875 19.2012 2 15.75 2ZM20.125 15.75C20.125 18.1625 18.1625 20.125 15.75 20.125H8.25C5.8375 20.125 3.875 18.1625 3.875 15.75V8.25C3.875 5.8375 5.8375 3.875 8.25 3.875H15.75C18.1625 3.875 20.125 5.8375 20.125 8.25V15.75Z" fill="#9C99AE"/>
<path d="M12 7C9.23875 7 7 9.23875 7 12C7 14.7613 9.23875 17 12 17C14.7613 17 17 14.7613 17 12C17 9.23875 14.7613 7 12 7ZM12 15.125C10.2775 15.125 8.875 13.7225 8.875 12C8.875 10.2763 10.2775 8.875 12 8.875C13.7225 8.875 15.125 10.2763 15.125 12C15.125 13.7225 13.7225 15.125 12 15.125Z" fill="#9C99AE"/>
<path d="M17.3749 7.29148C17.7429 7.29148 18.0412 6.99319 18.0412 6.62523C18.0412 6.25727 17.7429 5.95898 17.3749 5.95898C17.007 5.95898 16.7087 6.25727 16.7087 6.62523C16.7087 6.99319 17.007 7.29148 17.3749 7.29148Z" fill="#9C99AE"/>
</svg>
