<svg width="24" height="25" viewBox="0 0 24 25" fill="none" xmlns="http://www.w3.org/2000/svg">
<g clip-path="url(#clip0_4425_93591)">
<path d="M12 0.861328C9.77497 0.861328 7.5999 1.52113 5.74984 2.75729C3.89979 3.99346 2.45785 5.75047 1.60636 7.80614C0.754875 9.86181 0.532087 12.1238 0.966171 14.3061C1.40025 16.4884 2.47171 18.4929 4.04506 20.0663C5.6184 21.6396 7.62296 22.7111 9.80525 23.1452C11.9875 23.5792 14.2495 23.3565 16.3052 22.505C18.3609 21.6535 20.1179 20.2115 21.3541 18.3615C22.5902 16.5114 23.25 14.3364 23.25 12.1113C23.2466 9.12868 22.0603 6.26916 19.9512 4.1601C17.8422 2.05105 14.9827 0.864703 12 0.861328ZM12 21.8613C10.4513 21.8613 8.82976 19.8648 8.02501 16.6113H15.975C15.1703 19.8648 13.5488 21.8613 12 21.8613ZM7.72051 15.1113C7.42651 13.1221 7.42651 11.1005 7.72051 9.11133H16.2795C16.4283 10.1044 16.502 11.1072 16.5 12.1113C16.502 13.1154 16.4283 14.1183 16.2795 15.1113H7.72051ZM2.25001 12.1113C2.25055 11.0925 2.41152 10.0801 2.72701 9.11133H6.21451C5.92851 11.1011 5.92851 13.1216 6.21451 15.1113H2.72701C2.41152 14.1426 2.25055 13.1302 2.25001 12.1113ZM12 2.36133C13.5488 2.36133 15.1703 4.35783 15.975 7.61133H8.02501C8.82976 4.35783 10.4513 2.36133 12 2.36133ZM17.7855 9.11133H21.273C21.9088 11.0608 21.9088 13.1619 21.273 15.1113H17.7855C17.9277 14.1176 17.9994 13.1151 18 12.1113C17.9994 11.1075 17.9277 10.105 17.7855 9.11133ZM20.6408 7.61133H17.5155C17.1818 5.98009 16.5273 4.43139 15.5903 3.05508C17.7639 3.92193 19.5554 5.53816 20.6408 7.61133ZM8.40976 3.05508C7.47269 4.43139 6.81828 5.98009 6.48451 7.61133H3.35926C4.4446 5.53816 6.23615 3.92193 8.40976 3.05508ZM3.35926 16.6113H6.48451C6.81828 18.2426 7.47269 19.7913 8.40976 21.1676C6.23615 20.3007 4.4446 18.6845 3.35926 16.6113ZM15.5903 21.1676C16.5273 19.7913 17.1818 18.2426 17.5155 16.6113H20.6408C19.5554 18.6845 17.7639 20.3007 15.5903 21.1676Z" fill="#9C99AE"/>
</g>
<defs>
<clipPath id="clip0_4425_93591">
<rect width="24" height="24" fill="white" transform="translate(0 0.111328)"/>
</clipPath>
</defs>
</svg>
