<svg width="24" height="24" viewBox="0 0 24 24" fill="none" xmlns="http://www.w3.org/2000/svg">
<path d="M20.8301 18.8467H13.8271C13.9151 18.6607 13.9561 18.5067 14.0521 18.4027C14.4221 18.0147 14.8331 17.6587 15.1951 17.2717C15.3081 17.1497 15.4131 16.9477 15.4131 16.7867C15.4291 14.2267 15.4211 11.6737 15.4211 9.11274C15.4211 9.07274 15.4131 9.03974 15.3891 8.90274C15.3001 9.12074 15.2361 9.25774 15.1791 9.39574C13.9881 12.4247 12.7891 15.4617 11.5971 18.4907C11.5251 18.6687 11.5011 18.8627 11.2111 18.8627C10.9291 18.8707 10.8491 18.7097 10.7611 18.5077C9.37008 15.4719 7.98242 12.4346 6.59807 9.39574C6.52607 9.24174 6.45407 9.08874 6.31707 8.95074V9.25074C6.31707 11.3747 6.30107 13.4987 6.32507 15.6307C6.32507 15.8737 6.44507 16.1567 6.59807 16.3587C7.13007 17.0527 7.70107 17.7157 8.24807 18.3947C8.33807 18.5077 8.38507 18.6527 8.48207 18.8387H3.12207C3.21007 18.6527 3.25807 18.4907 3.35507 18.3787C3.87807 17.7317 4.40107 17.0857 4.94007 16.4477C5.17407 16.1647 5.27807 15.8657 5.27807 15.4937C5.26207 12.9497 5.27807 10.4047 5.25407 7.86074C5.25407 7.59374 5.12507 7.28674 4.96407 7.06874C4.53807 6.48674 4.05407 5.96174 3.61207 5.40474C3.50707 5.26774 3.45207 5.09774 3.33007 4.87174H5.51207C6.38207 4.87174 7.25907 4.87974 8.12807 4.86374C8.41007 4.85574 8.54607 4.95274 8.65907 5.21074C9.85107 7.86874 11.0661 10.5107 12.2731 13.1597C12.3221 13.2647 12.3781 13.3697 12.4591 13.5307C13.0221 12.1257 13.5691 10.7767 14.1091 9.42774C14.6801 8.00574 15.2361 6.58374 15.8151 5.17074C15.8641 5.04974 16.0081 4.87974 16.1051 4.87974C17.6671 4.86374 19.2201 4.87174 20.8781 4.87174C20.7661 5.06574 20.7181 5.21174 20.6211 5.31574C20.2511 5.68774 19.8481 6.02674 19.5011 6.41474C19.3571 6.57574 19.2361 6.82674 19.2361 7.03674C19.2201 10.2517 19.2201 13.4667 19.2361 16.6897C19.2361 16.8997 19.3571 17.1497 19.5021 17.3117C19.8401 17.6997 20.2261 18.0307 20.5811 18.4017C20.6611 18.5077 20.7171 18.6527 20.8311 18.8467H20.8301Z" fill="#9C99AE"/>
</svg>
